<?xml version="1.0" encoding="UTF-8"?>
<svg id="Layer_2" data-name="Layer 2" xmlns="http://www.w3.org/2000/svg" viewBox="0 0 241.61 300" fill="#059669">
  <g id="Layer_1-2" data-name="Layer 1">
    <g>
      <rect x="46.97" y="91.37" width="147.66" height="147.66" transform="translate(-81.43 133.81) rotate(-45)"/>
      <polygon points="226.41 164 240.41 150 226.41 136 241.61 120.8 120.8 0 0 120.8 15.2 136 16.39 134.8 2.39 120.8 120.8 2.39 239.22 120.8 225.22 134.8 120.8 30.39 16.39 134.8 1.2 150 15.2 164 120.8 58.39 226.41 164"/>
      <polygon points="225.22 165.2 239.22 179.2 120.8 297.61 2.39 179.2 16.39 165.2 15.2 164 0 179.2 120.8 300 241.61 179.2 226.41 164 225.22 165.2"/>
    </g>
  </g>
</svg>